<mxfile host="app.diagrams.net" agent="Mozilla/5.0 (Macintosh; Intel Mac OS X 10_15_7) AppleWebKit/537.36 (KHTML, like Gecko) Chrome/133.0.0.0 Safari/537.36" version="26.0.14">
  <diagram name="Use Case Diagram" id="use_case_1">
    <mxGraphModel dx="665576" dy="669605" grid="1" gridSize="10" guides="1" tooltips="1" connect="1" arrows="1" fold="1" page="1" pageScale="1" pageWidth="827" pageHeight="1169" math="0" shadow="0">
      <root>
        <mxCell id="0" />
        <mxCell id="1" parent="0" />
        <mxCell id="5" value="Создание документа" style="ellipse;whiteSpace=wrap;" parent="1" vertex="1">
          <mxGeometry x="250" y="100" width="140" height="60" as="geometry" />
        </mxCell>
        <mxCell id="6" value="Поиск документа" style="ellipse;whiteSpace=wrap;" parent="1" vertex="1">
          <mxGeometry x="250" y="200" width="140" height="60" as="geometry" />
        </mxCell>
        <mxCell id="7" value="Подписание документа" style="ellipse;whiteSpace=wrap;" parent="1" vertex="1">
          <mxGeometry x="250" y="300" width="140" height="60" as="geometry" />
        </mxCell>
        <mxCell id="8" value="Утверждение документа" style="ellipse;whiteSpace=wrap;" parent="1" vertex="1">
          <mxGeometry x="500" y="200" width="140" height="60" as="geometry" />
        </mxCell>
        <mxCell id="9" value="Контроль задач" style="ellipse;whiteSpace=wrap;" parent="1" vertex="1">
          <mxGeometry x="500" y="300" width="140" height="60" as="geometry" />
        </mxCell>
        <mxCell id="10" value="Управление доступом" style="ellipse;whiteSpace=wrap;" parent="1" vertex="1">
          <mxGeometry x="300" y="600" width="140" height="60" as="geometry" />
        </mxCell>
        <mxCell id="11" parent="1" target="5" edge="1" />
        <mxCell id="12" parent="1" target="6" edge="1" />
        <mxCell id="13" parent="1" target="7" edge="1" />
        <mxCell id="14" parent="1" target="8" edge="1" />
        <mxCell id="15" parent="1" target="9" edge="1" />
        <mxCell id="16" parent="1" target="10" edge="1" />
        <mxCell id="1HhsdRIlkmis1yDEBjAZ-37" style="edgeStyle=orthogonalEdgeStyle;rounded=0;orthogonalLoop=1;jettySize=auto;html=1;entryX=0;entryY=0.5;entryDx=0;entryDy=0;" edge="1" parent="1" source="1HhsdRIlkmis1yDEBjAZ-16" target="1HhsdRIlkmis1yDEBjAZ-36">
          <mxGeometry relative="1" as="geometry" />
        </mxCell>
        <mxCell id="1HhsdRIlkmis1yDEBjAZ-16" value="Администратор" style="shape=umlActor;verticalLabelPosition=bottom;verticalAlign=top;html=1;outlineConnect=0;" vertex="1" parent="1">
          <mxGeometry x="-1460" y="-1120" width="30" height="60" as="geometry" />
        </mxCell>
        <mxCell id="1HhsdRIlkmis1yDEBjAZ-25" style="edgeStyle=orthogonalEdgeStyle;rounded=0;orthogonalLoop=1;jettySize=auto;html=1;" edge="1" parent="1" source="1HhsdRIlkmis1yDEBjAZ-20" target="1HhsdRIlkmis1yDEBjAZ-24">
          <mxGeometry relative="1" as="geometry" />
        </mxCell>
        <mxCell id="1HhsdRIlkmis1yDEBjAZ-20" value="сотрудник" style="shape=umlActor;verticalLabelPosition=bottom;verticalAlign=top;html=1;outlineConnect=0;" vertex="1" parent="1">
          <mxGeometry x="-1460" y="-1010" width="30" height="60" as="geometry" />
        </mxCell>
        <mxCell id="1HhsdRIlkmis1yDEBjAZ-52" style="edgeStyle=orthogonalEdgeStyle;rounded=0;orthogonalLoop=1;jettySize=auto;html=1;entryX=0;entryY=0.5;entryDx=0;entryDy=0;" edge="1" parent="1" source="1HhsdRIlkmis1yDEBjAZ-21" target="1HhsdRIlkmis1yDEBjAZ-51">
          <mxGeometry relative="1" as="geometry" />
        </mxCell>
        <mxCell id="1HhsdRIlkmis1yDEBjAZ-21" value="Руководитель" style="shape=umlActor;verticalLabelPosition=bottom;verticalAlign=top;html=1;outlineConnect=0;" vertex="1" parent="1">
          <mxGeometry x="-1460" y="-900" width="30" height="60" as="geometry" />
        </mxCell>
        <mxCell id="1HhsdRIlkmis1yDEBjAZ-68" style="edgeStyle=orthogonalEdgeStyle;rounded=0;orthogonalLoop=1;jettySize=auto;html=1;entryX=0;entryY=0.5;entryDx=0;entryDy=0;" edge="1" parent="1" source="1HhsdRIlkmis1yDEBjAZ-22" target="1HhsdRIlkmis1yDEBjAZ-56">
          <mxGeometry relative="1" as="geometry" />
        </mxCell>
        <mxCell id="1HhsdRIlkmis1yDEBjAZ-22" value="Клиент" style="shape=umlActor;verticalLabelPosition=bottom;verticalAlign=top;html=1;outlineConnect=0;" vertex="1" parent="1">
          <mxGeometry x="-1460" y="-783" width="30" height="60" as="geometry" />
        </mxCell>
        <mxCell id="1HhsdRIlkmis1yDEBjAZ-35" style="edgeStyle=orthogonalEdgeStyle;rounded=0;orthogonalLoop=1;jettySize=auto;html=1;" edge="1" parent="1" source="1HhsdRIlkmis1yDEBjAZ-23" target="1HhsdRIlkmis1yDEBjAZ-26">
          <mxGeometry relative="1" as="geometry" />
        </mxCell>
        <mxCell id="1HhsdRIlkmis1yDEBjAZ-23" value="Система" style="shape=umlActor;verticalLabelPosition=bottom;verticalAlign=top;html=1;outlineConnect=0;" vertex="1" parent="1">
          <mxGeometry x="-1460" y="-675" width="30" height="60" as="geometry" />
        </mxCell>
        <mxCell id="1HhsdRIlkmis1yDEBjAZ-45" style="edgeStyle=orthogonalEdgeStyle;rounded=0;orthogonalLoop=1;jettySize=auto;html=1;entryX=0;entryY=0.5;entryDx=0;entryDy=0;" edge="1" parent="1" source="1HhsdRIlkmis1yDEBjAZ-24" target="1HhsdRIlkmis1yDEBjAZ-44">
          <mxGeometry relative="1" as="geometry" />
        </mxCell>
        <mxCell id="1HhsdRIlkmis1yDEBjAZ-46" style="edgeStyle=orthogonalEdgeStyle;rounded=0;orthogonalLoop=1;jettySize=auto;html=1;entryX=0.5;entryY=0;entryDx=0;entryDy=0;" edge="1" parent="1" source="1HhsdRIlkmis1yDEBjAZ-24" target="1HhsdRIlkmis1yDEBjAZ-26">
          <mxGeometry relative="1" as="geometry">
            <Array as="points">
              <mxPoint x="-1230" y="-980" />
              <mxPoint x="-1230" y="-690" />
              <mxPoint x="-1161" y="-690" />
            </Array>
          </mxGeometry>
        </mxCell>
        <mxCell id="1HhsdRIlkmis1yDEBjAZ-24" value="Загрузка документа в систему" style="rounded=0;whiteSpace=wrap;html=1;" vertex="1" parent="1">
          <mxGeometry x="-1380" y="-1010" width="120" height="60" as="geometry" />
        </mxCell>
        <mxCell id="1HhsdRIlkmis1yDEBjAZ-29" style="edgeStyle=orthogonalEdgeStyle;rounded=0;orthogonalLoop=1;jettySize=auto;html=1;exitX=1;exitY=0.5;exitDx=0;exitDy=0;" edge="1" parent="1" source="1HhsdRIlkmis1yDEBjAZ-26" target="1HhsdRIlkmis1yDEBjAZ-28">
          <mxGeometry relative="1" as="geometry" />
        </mxCell>
        <mxCell id="1HhsdRIlkmis1yDEBjAZ-26" value="Проверка корректности данных" style="rounded=0;whiteSpace=wrap;html=1;" vertex="1" parent="1">
          <mxGeometry x="-1221" y="-675" width="120" height="60" as="geometry" />
        </mxCell>
        <mxCell id="1HhsdRIlkmis1yDEBjAZ-32" style="edgeStyle=orthogonalEdgeStyle;rounded=0;orthogonalLoop=1;jettySize=auto;html=1;exitX=1;exitY=0.5;exitDx=0;exitDy=0;" edge="1" parent="1" source="1HhsdRIlkmis1yDEBjAZ-28" target="1HhsdRIlkmis1yDEBjAZ-31">
          <mxGeometry relative="1" as="geometry" />
        </mxCell>
        <mxCell id="1HhsdRIlkmis1yDEBjAZ-28" value="Сохранение документа в базу данных&amp;nbsp;" style="rounded=0;whiteSpace=wrap;html=1;" vertex="1" parent="1">
          <mxGeometry x="-1050" y="-675" width="120" height="60" as="geometry" />
        </mxCell>
        <mxCell id="1HhsdRIlkmis1yDEBjAZ-34" style="edgeStyle=orthogonalEdgeStyle;rounded=0;orthogonalLoop=1;jettySize=auto;html=1;exitX=1;exitY=0.5;exitDx=0;exitDy=0;" edge="1" parent="1" source="1HhsdRIlkmis1yDEBjAZ-31" target="1HhsdRIlkmis1yDEBjAZ-33">
          <mxGeometry relative="1" as="geometry" />
        </mxCell>
        <mxCell id="1HhsdRIlkmis1yDEBjAZ-72" style="edgeStyle=orthogonalEdgeStyle;rounded=0;orthogonalLoop=1;jettySize=auto;html=1;" edge="1" parent="1" source="1HhsdRIlkmis1yDEBjAZ-31" target="1HhsdRIlkmis1yDEBjAZ-47">
          <mxGeometry relative="1" as="geometry">
            <Array as="points">
              <mxPoint x="-760" y="-645" />
              <mxPoint x="-760" y="-940" />
              <mxPoint x="-1000" y="-940" />
            </Array>
          </mxGeometry>
        </mxCell>
        <mxCell id="1HhsdRIlkmis1yDEBjAZ-31" value="Отправляет уведомления о статусах документов" style="rounded=0;whiteSpace=wrap;html=1;" vertex="1" parent="1">
          <mxGeometry x="-900" y="-675" width="120" height="60" as="geometry" />
        </mxCell>
        <mxCell id="1HhsdRIlkmis1yDEBjAZ-33" value="Формирует отчеты по документообороту" style="rounded=0;whiteSpace=wrap;html=1;" vertex="1" parent="1">
          <mxGeometry x="-740" y="-675" width="120" height="60" as="geometry" />
        </mxCell>
        <mxCell id="1HhsdRIlkmis1yDEBjAZ-39" style="edgeStyle=orthogonalEdgeStyle;rounded=0;orthogonalLoop=1;jettySize=auto;html=1;exitX=1;exitY=0.5;exitDx=0;exitDy=0;entryX=0;entryY=0.5;entryDx=0;entryDy=0;" edge="1" parent="1" source="1HhsdRIlkmis1yDEBjAZ-36" target="1HhsdRIlkmis1yDEBjAZ-38">
          <mxGeometry relative="1" as="geometry" />
        </mxCell>
        <mxCell id="1HhsdRIlkmis1yDEBjAZ-36" value="Добавление, удаление и редактирование пользователей" style="rounded=0;whiteSpace=wrap;html=1;" vertex="1" parent="1">
          <mxGeometry x="-1360" y="-1120" width="120" height="60" as="geometry" />
        </mxCell>
        <mxCell id="1HhsdRIlkmis1yDEBjAZ-43" style="edgeStyle=orthogonalEdgeStyle;rounded=0;orthogonalLoop=1;jettySize=auto;html=1;" edge="1" parent="1" source="1HhsdRIlkmis1yDEBjAZ-38" target="1HhsdRIlkmis1yDEBjAZ-40">
          <mxGeometry relative="1" as="geometry" />
        </mxCell>
        <mxCell id="1HhsdRIlkmis1yDEBjAZ-38" value="Определение уровней доступа для пользователей" style="rounded=0;whiteSpace=wrap;html=1;" vertex="1" parent="1">
          <mxGeometry x="-1190" y="-1120" width="120" height="60" as="geometry" />
        </mxCell>
        <mxCell id="1HhsdRIlkmis1yDEBjAZ-42" style="edgeStyle=orthogonalEdgeStyle;rounded=0;orthogonalLoop=1;jettySize=auto;html=1;exitX=1;exitY=0.5;exitDx=0;exitDy=0;entryX=0;entryY=0.5;entryDx=0;entryDy=0;" edge="1" parent="1" source="1HhsdRIlkmis1yDEBjAZ-40" target="1HhsdRIlkmis1yDEBjAZ-41">
          <mxGeometry relative="1" as="geometry" />
        </mxCell>
        <mxCell id="1HhsdRIlkmis1yDEBjAZ-40" value="Мониторинг действий пользователей в системе" style="rounded=0;whiteSpace=wrap;html=1;" vertex="1" parent="1">
          <mxGeometry x="-1030" y="-1120" width="120" height="60" as="geometry" />
        </mxCell>
        <mxCell id="1HhsdRIlkmis1yDEBjAZ-41" value="Настройка параметров системы" style="rounded=0;whiteSpace=wrap;html=1;" vertex="1" parent="1">
          <mxGeometry x="-880" y="-1120" width="120" height="60" as="geometry" />
        </mxCell>
        <mxCell id="1HhsdRIlkmis1yDEBjAZ-48" style="edgeStyle=orthogonalEdgeStyle;rounded=0;orthogonalLoop=1;jettySize=auto;html=1;entryX=0;entryY=0.5;entryDx=0;entryDy=0;" edge="1" parent="1" source="1HhsdRIlkmis1yDEBjAZ-44" target="1HhsdRIlkmis1yDEBjAZ-47">
          <mxGeometry relative="1" as="geometry" />
        </mxCell>
        <mxCell id="1HhsdRIlkmis1yDEBjAZ-44" value="Редактирование документа" style="rounded=0;whiteSpace=wrap;html=1;" vertex="1" parent="1">
          <mxGeometry x="-1210" y="-1010" width="120" height="60" as="geometry" />
        </mxCell>
        <mxCell id="1HhsdRIlkmis1yDEBjAZ-50" style="edgeStyle=orthogonalEdgeStyle;rounded=0;orthogonalLoop=1;jettySize=auto;html=1;exitX=1;exitY=0.5;exitDx=0;exitDy=0;entryX=0;entryY=0.5;entryDx=0;entryDy=0;" edge="1" parent="1" source="1HhsdRIlkmis1yDEBjAZ-47" target="1HhsdRIlkmis1yDEBjAZ-49">
          <mxGeometry relative="1" as="geometry" />
        </mxCell>
        <mxCell id="1HhsdRIlkmis1yDEBjAZ-53" style="edgeStyle=orthogonalEdgeStyle;rounded=0;orthogonalLoop=1;jettySize=auto;html=1;entryX=0.5;entryY=0;entryDx=0;entryDy=0;" edge="1" parent="1" source="1HhsdRIlkmis1yDEBjAZ-47" target="1HhsdRIlkmis1yDEBjAZ-51">
          <mxGeometry relative="1" as="geometry">
            <Array as="points">
              <mxPoint x="-1000" y="-930" />
              <mxPoint x="-1320" y="-930" />
            </Array>
          </mxGeometry>
        </mxCell>
        <mxCell id="1HhsdRIlkmis1yDEBjAZ-47" value="Отправка документа на проверку" style="rounded=0;whiteSpace=wrap;html=1;" vertex="1" parent="1">
          <mxGeometry x="-1060" y="-1010" width="120" height="60" as="geometry" />
        </mxCell>
        <mxCell id="1HhsdRIlkmis1yDEBjAZ-76" style="edgeStyle=orthogonalEdgeStyle;rounded=0;orthogonalLoop=1;jettySize=auto;html=1;entryX=0.5;entryY=0;entryDx=0;entryDy=0;" edge="1" parent="1" source="1HhsdRIlkmis1yDEBjAZ-49" target="1HhsdRIlkmis1yDEBjAZ-58">
          <mxGeometry relative="1" as="geometry">
            <Array as="points">
              <mxPoint x="-840" y="-820" />
              <mxPoint x="-1150" y="-820" />
            </Array>
          </mxGeometry>
        </mxCell>
        <mxCell id="1HhsdRIlkmis1yDEBjAZ-49" value="&lt;table&gt;&lt;tbody&gt;&lt;tr&gt;&lt;td&gt;&lt;/td&gt;&lt;/tr&gt;&lt;/tbody&gt;&lt;/table&gt;&lt;table&gt;&lt;tbody&gt;&lt;tr&gt;&lt;td&gt;Поиск документов&lt;/td&gt;&lt;/tr&gt;&lt;/tbody&gt;&lt;/table&gt;" style="rounded=0;whiteSpace=wrap;html=1;" vertex="1" parent="1">
          <mxGeometry x="-900" y="-1010" width="120" height="60" as="geometry" />
        </mxCell>
        <mxCell id="1HhsdRIlkmis1yDEBjAZ-64" style="edgeStyle=orthogonalEdgeStyle;rounded=0;orthogonalLoop=1;jettySize=auto;html=1;entryX=0;entryY=0.5;entryDx=0;entryDy=0;" edge="1" parent="1" source="1HhsdRIlkmis1yDEBjAZ-51" target="1HhsdRIlkmis1yDEBjAZ-63">
          <mxGeometry relative="1" as="geometry" />
        </mxCell>
        <mxCell id="1HhsdRIlkmis1yDEBjAZ-51" value="Проверка и подписание документов" style="rounded=0;whiteSpace=wrap;html=1;" vertex="1" parent="1">
          <mxGeometry x="-1380" y="-900" width="120" height="60" as="geometry" />
        </mxCell>
        <mxCell id="1HhsdRIlkmis1yDEBjAZ-74" style="edgeStyle=orthogonalEdgeStyle;rounded=0;orthogonalLoop=1;jettySize=auto;html=1;exitX=1;exitY=0.5;exitDx=0;exitDy=0;entryX=0.5;entryY=0;entryDx=0;entryDy=0;" edge="1" parent="1" source="1HhsdRIlkmis1yDEBjAZ-54" target="1HhsdRIlkmis1yDEBjAZ-33">
          <mxGeometry relative="1" as="geometry" />
        </mxCell>
        <mxCell id="1HhsdRIlkmis1yDEBjAZ-54" value="Запрашивает отчёты о работе сотрудников" style="rounded=0;whiteSpace=wrap;html=1;" vertex="1" parent="1">
          <mxGeometry x="-1040" y="-900" width="120" height="60" as="geometry" />
        </mxCell>
        <mxCell id="1HhsdRIlkmis1yDEBjAZ-69" style="edgeStyle=orthogonalEdgeStyle;rounded=0;orthogonalLoop=1;jettySize=auto;html=1;entryX=0;entryY=0.5;entryDx=0;entryDy=0;" edge="1" parent="1" source="1HhsdRIlkmis1yDEBjAZ-56" target="1HhsdRIlkmis1yDEBjAZ-58">
          <mxGeometry relative="1" as="geometry" />
        </mxCell>
        <mxCell id="1HhsdRIlkmis1yDEBjAZ-56" value="Запрос документа" style="rounded=0;whiteSpace=wrap;html=1;" vertex="1" parent="1">
          <mxGeometry x="-1380" y="-783" width="120" height="60" as="geometry" />
        </mxCell>
        <mxCell id="1HhsdRIlkmis1yDEBjAZ-57" value="" style="rounded=0;whiteSpace=wrap;html=1;" vertex="1" parent="1">
          <mxGeometry x="-260" y="380" width="120" height="60" as="geometry" />
        </mxCell>
        <mxCell id="1HhsdRIlkmis1yDEBjAZ-70" style="edgeStyle=orthogonalEdgeStyle;rounded=0;orthogonalLoop=1;jettySize=auto;html=1;exitX=1;exitY=0.5;exitDx=0;exitDy=0;entryX=0;entryY=0.5;entryDx=0;entryDy=0;" edge="1" parent="1" source="1HhsdRIlkmis1yDEBjAZ-58" target="1HhsdRIlkmis1yDEBjAZ-59">
          <mxGeometry relative="1" as="geometry" />
        </mxCell>
        <mxCell id="1HhsdRIlkmis1yDEBjAZ-58" value="Получение документа" style="rounded=0;whiteSpace=wrap;html=1;" vertex="1" parent="1">
          <mxGeometry x="-1210" y="-783" width="120" height="60" as="geometry" />
        </mxCell>
        <mxCell id="1HhsdRIlkmis1yDEBjAZ-71" style="edgeStyle=orthogonalEdgeStyle;rounded=0;orthogonalLoop=1;jettySize=auto;html=1;exitX=1;exitY=0.5;exitDx=0;exitDy=0;entryX=0;entryY=0.5;entryDx=0;entryDy=0;" edge="1" parent="1" source="1HhsdRIlkmis1yDEBjAZ-59" target="1HhsdRIlkmis1yDEBjAZ-62">
          <mxGeometry relative="1" as="geometry" />
        </mxCell>
        <mxCell id="1HhsdRIlkmis1yDEBjAZ-59" value="Оставление отзыва" style="rounded=0;whiteSpace=wrap;html=1;" vertex="1" parent="1">
          <mxGeometry x="-1044" y="-783" width="120" height="60" as="geometry" />
        </mxCell>
        <mxCell id="1HhsdRIlkmis1yDEBjAZ-62" value="Получение уведомлений" style="rounded=0;whiteSpace=wrap;html=1;" vertex="1" parent="1">
          <mxGeometry x="-891" y="-783" width="120" height="60" as="geometry" />
        </mxCell>
        <mxCell id="1HhsdRIlkmis1yDEBjAZ-66" style="edgeStyle=orthogonalEdgeStyle;rounded=0;orthogonalLoop=1;jettySize=auto;html=1;exitX=1;exitY=0.5;exitDx=0;exitDy=0;entryX=0;entryY=0.5;entryDx=0;entryDy=0;" edge="1" parent="1" source="1HhsdRIlkmis1yDEBjAZ-63" target="1HhsdRIlkmis1yDEBjAZ-54">
          <mxGeometry relative="1" as="geometry">
            <mxPoint x="-1060" y="-870" as="targetPoint" />
          </mxGeometry>
        </mxCell>
        <mxCell id="1HhsdRIlkmis1yDEBjAZ-63" value="Контроль выполнения задач" style="rounded=0;whiteSpace=wrap;html=1;" vertex="1" parent="1">
          <mxGeometry x="-1208" y="-900" width="120" height="60" as="geometry" />
        </mxCell>
        <mxCell id="1HhsdRIlkmis1yDEBjAZ-92" style="edgeStyle=orthogonalEdgeStyle;rounded=0;orthogonalLoop=1;jettySize=auto;html=1;exitX=0;exitY=1;exitDx=0;exitDy=0;exitPerimeter=0;entryX=0.5;entryY=0;entryDx=0;entryDy=0;" edge="1" parent="1" source="1HhsdRIlkmis1yDEBjAZ-77" target="1HhsdRIlkmis1yDEBjAZ-88">
          <mxGeometry relative="1" as="geometry" />
        </mxCell>
        <mxCell id="1HhsdRIlkmis1yDEBjAZ-94" style="edgeStyle=orthogonalEdgeStyle;rounded=0;orthogonalLoop=1;jettySize=auto;html=1;entryX=0.5;entryY=0;entryDx=0;entryDy=0;" edge="1" parent="1" source="1HhsdRIlkmis1yDEBjAZ-77" target="1HhsdRIlkmis1yDEBjAZ-93">
          <mxGeometry relative="1" as="geometry" />
        </mxCell>
        <mxCell id="1HhsdRIlkmis1yDEBjAZ-96" style="edgeStyle=orthogonalEdgeStyle;rounded=0;orthogonalLoop=1;jettySize=auto;html=1;exitX=1;exitY=1;exitDx=0;exitDy=0;exitPerimeter=0;entryX=0.5;entryY=0;entryDx=0;entryDy=0;" edge="1" parent="1" source="1HhsdRIlkmis1yDEBjAZ-77" target="1HhsdRIlkmis1yDEBjAZ-95">
          <mxGeometry relative="1" as="geometry" />
        </mxCell>
        <mxCell id="1HhsdRIlkmis1yDEBjAZ-77" value="Сотрудник" style="shape=umlActor;verticalLabelPosition=bottom;verticalAlign=top;html=1;outlineConnect=0;" vertex="1" parent="1">
          <mxGeometry x="-1360" y="-300" width="30" height="60" as="geometry" />
        </mxCell>
        <mxCell id="1HhsdRIlkmis1yDEBjAZ-88" value="&lt;span style=&quot;text-align: start; line-height: 28px; font-family: &amp;quot;Times New Roman&amp;quot;, serif;&quot; lang=&quot;EN-US&quot;&gt;&lt;font style=&quot;font-size: 14px;&quot;&gt;Загрузка документа&lt;/font&gt;&lt;/span&gt;&lt;span style=&quot;font-size: medium; text-align: start;&quot;&gt;&lt;/span&gt;" style="ellipse;whiteSpace=wrap;html=1;" vertex="1" parent="1">
          <mxGeometry x="-1500" y="-150" width="120" height="80" as="geometry" />
        </mxCell>
        <mxCell id="1HhsdRIlkmis1yDEBjAZ-93" value="&lt;span style=&quot;text-align: start; line-height: 28px; font-family: &amp;quot;Times New Roman&amp;quot;, serif;&quot; lang=&quot;EN-US&quot;&gt;&lt;font style=&quot;font-size: 14px;&quot;&gt;Редактирование документа&lt;/font&gt;&lt;/span&gt;&lt;span style=&quot;font-size: medium; text-align: start;&quot;&gt;&lt;/span&gt;" style="ellipse;whiteSpace=wrap;html=1;" vertex="1" parent="1">
          <mxGeometry x="-1350" y="-150" width="160" height="100" as="geometry" />
        </mxCell>
        <mxCell id="1HhsdRIlkmis1yDEBjAZ-95" value="&lt;span style=&quot;text-align: start; line-height: 28px; font-family: &amp;quot;Times New Roman&amp;quot;, serif;&quot; lang=&quot;EN-US&quot;&gt;&lt;font style=&quot;font-size: 14px;&quot;&gt;Поиск документа&lt;/font&gt;&lt;/span&gt;&lt;span style=&quot;font-size: medium; text-align: start;&quot;&gt;&lt;/span&gt;" style="ellipse;whiteSpace=wrap;html=1;" vertex="1" parent="1">
          <mxGeometry x="-1160" y="-170" width="120" height="80" as="geometry" />
        </mxCell>
        <mxCell id="1HhsdRIlkmis1yDEBjAZ-100" style="edgeStyle=orthogonalEdgeStyle;rounded=0;orthogonalLoop=1;jettySize=auto;html=1;exitX=0.5;exitY=0;exitDx=0;exitDy=0;exitPerimeter=0;entryX=0.5;entryY=1;entryDx=0;entryDy=0;" edge="1" parent="1" source="1HhsdRIlkmis1yDEBjAZ-98" target="1HhsdRIlkmis1yDEBjAZ-95">
          <mxGeometry relative="1" as="geometry" />
        </mxCell>
        <mxCell id="1HhsdRIlkmis1yDEBjAZ-102" style="edgeStyle=orthogonalEdgeStyle;rounded=0;orthogonalLoop=1;jettySize=auto;html=1;" edge="1" parent="1" source="1HhsdRIlkmis1yDEBjAZ-98" target="1HhsdRIlkmis1yDEBjAZ-101">
          <mxGeometry relative="1" as="geometry" />
        </mxCell>
        <mxCell id="1HhsdRIlkmis1yDEBjAZ-105" style="edgeStyle=orthogonalEdgeStyle;rounded=0;orthogonalLoop=1;jettySize=auto;html=1;exitX=1;exitY=1;exitDx=0;exitDy=0;exitPerimeter=0;entryX=0;entryY=0.5;entryDx=0;entryDy=0;" edge="1" parent="1" source="1HhsdRIlkmis1yDEBjAZ-98" target="1HhsdRIlkmis1yDEBjAZ-104">
          <mxGeometry relative="1" as="geometry" />
        </mxCell>
        <mxCell id="1HhsdRIlkmis1yDEBjAZ-98" value="Руководитель" style="shape=umlActor;verticalLabelPosition=bottom;verticalAlign=top;html=1;outlineConnect=0;" vertex="1" parent="1">
          <mxGeometry x="-1100" y="20" width="30" height="60" as="geometry" />
        </mxCell>
        <mxCell id="1HhsdRIlkmis1yDEBjAZ-101" value="&lt;span style=&quot;text-align: start; line-height: 28px; font-family: &amp;quot;Times New Roman&amp;quot;, serif;&quot; lang=&quot;EN-US&quot;&gt;&lt;font style=&quot;font-size: 14px;&quot;&gt;Утверждение документа&lt;/font&gt;&lt;/span&gt;&lt;span style=&quot;font-size: medium; text-align: start;&quot;&gt;&lt;/span&gt;" style="ellipse;whiteSpace=wrap;html=1;" vertex="1" parent="1">
          <mxGeometry x="-1040" y="10" width="120" height="80" as="geometry" />
        </mxCell>
        <mxCell id="1HhsdRIlkmis1yDEBjAZ-104" value="&lt;font style=&quot;font-size: 14px;&quot; face=&quot;Times New Roman&quot;&gt;Запрос документа&lt;/font&gt;" style="ellipse;whiteSpace=wrap;html=1;" vertex="1" parent="1">
          <mxGeometry x="-1050" y="150" width="120" height="80" as="geometry" />
        </mxCell>
        <mxCell id="1HhsdRIlkmis1yDEBjAZ-106" value="&lt;font style=&quot;font-size: 12px;&quot; face=&quot;Times New Roman&quot;&gt;Оставление отзыва о проделанной работе&lt;/font&gt;" style="ellipse;whiteSpace=wrap;html=1;" vertex="1" parent="1">
          <mxGeometry x="-1615" y="130" width="120" height="80" as="geometry" />
        </mxCell>
        <mxCell id="1HhsdRIlkmis1yDEBjAZ-114" style="edgeStyle=orthogonalEdgeStyle;rounded=0;orthogonalLoop=1;jettySize=auto;html=1;entryX=0.5;entryY=1;entryDx=0;entryDy=0;" edge="1" parent="1" source="1HhsdRIlkmis1yDEBjAZ-110" target="1HhsdRIlkmis1yDEBjAZ-113">
          <mxGeometry relative="1" as="geometry" />
        </mxCell>
        <mxCell id="1HhsdRIlkmis1yDEBjAZ-116" style="edgeStyle=orthogonalEdgeStyle;rounded=0;orthogonalLoop=1;jettySize=auto;html=1;entryX=0.5;entryY=1;entryDx=0;entryDy=0;" edge="1" parent="1" source="1HhsdRIlkmis1yDEBjAZ-110" target="1HhsdRIlkmis1yDEBjAZ-115">
          <mxGeometry relative="1" as="geometry" />
        </mxCell>
        <mxCell id="1HhsdRIlkmis1yDEBjAZ-117" style="edgeStyle=orthogonalEdgeStyle;rounded=0;orthogonalLoop=1;jettySize=auto;html=1;entryX=0.5;entryY=1;entryDx=0;entryDy=0;" edge="1" parent="1" source="1HhsdRIlkmis1yDEBjAZ-110" target="1HhsdRIlkmis1yDEBjAZ-93">
          <mxGeometry relative="1" as="geometry">
            <Array as="points">
              <mxPoint x="-1335" y="65" />
              <mxPoint x="-1290" y="65" />
              <mxPoint x="-1290" y="-50" />
            </Array>
          </mxGeometry>
        </mxCell>
        <mxCell id="1HhsdRIlkmis1yDEBjAZ-120" style="edgeStyle=orthogonalEdgeStyle;rounded=0;orthogonalLoop=1;jettySize=auto;html=1;entryX=0;entryY=0.5;entryDx=0;entryDy=0;" edge="1" parent="1" source="1HhsdRIlkmis1yDEBjAZ-110" target="1HhsdRIlkmis1yDEBjAZ-119">
          <mxGeometry relative="1" as="geometry" />
        </mxCell>
        <mxCell id="1HhsdRIlkmis1yDEBjAZ-110" value="система" style="shape=umlActor;verticalLabelPosition=bottom;verticalAlign=top;html=1;outlineConnect=0;" vertex="1" parent="1">
          <mxGeometry x="-1350" y="180" width="30" height="60" as="geometry" />
        </mxCell>
        <mxCell id="1HhsdRIlkmis1yDEBjAZ-113" value="&lt;span style=&quot;text-align: start; line-height: 28px; font-family: &amp;quot;Times New Roman&amp;quot;, serif;&quot; lang=&quot;EN-US&quot;&gt;&lt;font style=&quot;font-size: 12px;&quot;&gt;Проверка документа&lt;/font&gt;&lt;/span&gt;&lt;span style=&quot;font-size: medium; text-align: start;&quot;&gt;&lt;/span&gt;" style="ellipse;whiteSpace=wrap;html=1;" vertex="1" parent="1">
          <mxGeometry x="-1460" y="60" width="120" height="80" as="geometry" />
        </mxCell>
        <mxCell id="1HhsdRIlkmis1yDEBjAZ-115" value="&lt;span style=&quot;text-align: start; line-height: 28px; font-family: &amp;quot;Times New Roman&amp;quot;, serif;&quot; lang=&quot;EN-US&quot;&gt;&lt;font style=&quot;font-size: 12px;&quot;&gt;Сохранение документа&lt;/font&gt;&lt;/span&gt;&lt;span style=&quot;font-size: medium; text-align: start;&quot;&gt;&lt;/span&gt;" style="ellipse;whiteSpace=wrap;html=1;" vertex="1" parent="1">
          <mxGeometry x="-1310" y="60" width="120" height="80" as="geometry" />
        </mxCell>
        <mxCell id="1HhsdRIlkmis1yDEBjAZ-119" value="&lt;span style=&quot;text-align: start; line-height: 28px; font-family: &amp;quot;Times New Roman&amp;quot;, serif;&quot; lang=&quot;EN-US&quot;&gt;&lt;font style=&quot;font-size: 14px;&quot;&gt;Генерация отчётов&lt;/font&gt;&lt;/span&gt;&lt;span style=&quot;font-size: medium; text-align: start;&quot;&gt;&lt;/span&gt;" style="ellipse;whiteSpace=wrap;html=1;" vertex="1" parent="1">
          <mxGeometry x="-1300" y="290" width="120" height="80" as="geometry" />
        </mxCell>
        <mxCell id="1HhsdRIlkmis1yDEBjAZ-124" value="&amp;lt;&amp;lt;include&amp;gt;&amp;gt;" style="html=1;verticalAlign=bottom;labelBackgroundColor=none;endArrow=open;endFill=0;dashed=1;rounded=0;exitX=0;exitY=0;exitDx=0;exitDy=0;entryX=0.912;entryY=0.786;entryDx=0;entryDy=0;entryPerimeter=0;" edge="1" parent="1" source="1HhsdRIlkmis1yDEBjAZ-104" target="1HhsdRIlkmis1yDEBjAZ-88">
          <mxGeometry x="0.1339" y="-5" width="160" relative="1" as="geometry">
            <mxPoint x="-1130" y="180" as="sourcePoint" />
            <mxPoint x="-1360" y="-30" as="targetPoint" />
            <mxPoint as="offset" />
          </mxGeometry>
        </mxCell>
        <mxCell id="1HhsdRIlkmis1yDEBjAZ-125" value="&amp;lt;&amp;lt;include&amp;gt;&amp;gt;" style="html=1;verticalAlign=bottom;labelBackgroundColor=none;endArrow=open;endFill=0;dashed=1;rounded=0;entryX=0.5;entryY=0;entryDx=0;entryDy=0;exitX=0.5;exitY=1;exitDx=0;exitDy=0;" edge="1" parent="1" source="1HhsdRIlkmis1yDEBjAZ-88" target="1HhsdRIlkmis1yDEBjAZ-113">
          <mxGeometry width="160" relative="1" as="geometry">
            <mxPoint x="-1490" as="sourcePoint" />
            <mxPoint x="-1330" as="targetPoint" />
          </mxGeometry>
        </mxCell>
        <mxCell id="1HhsdRIlkmis1yDEBjAZ-127" value="Загрузка документа на&amp;nbsp;подтверждение" style="ellipse;whiteSpace=wrap;html=1;" vertex="1" parent="1">
          <mxGeometry x="-1608" y="-50" width="120" height="80" as="geometry" />
        </mxCell>
        <mxCell id="1HhsdRIlkmis1yDEBjAZ-133" style="edgeStyle=orthogonalEdgeStyle;rounded=0;orthogonalLoop=1;jettySize=auto;html=1;entryX=0;entryY=0.5;entryDx=0;entryDy=0;" edge="1" parent="1" source="1HhsdRIlkmis1yDEBjAZ-128" target="1HhsdRIlkmis1yDEBjAZ-132">
          <mxGeometry relative="1" as="geometry">
            <Array as="points">
              <mxPoint x="-1510" y="430" />
            </Array>
          </mxGeometry>
        </mxCell>
        <mxCell id="1HhsdRIlkmis1yDEBjAZ-135" style="edgeStyle=orthogonalEdgeStyle;rounded=0;orthogonalLoop=1;jettySize=auto;html=1;exitX=1;exitY=0.3333333333333333;exitDx=0;exitDy=0;exitPerimeter=0;entryX=0;entryY=0.5;entryDx=0;entryDy=0;" edge="1" parent="1" source="1HhsdRIlkmis1yDEBjAZ-128" target="1HhsdRIlkmis1yDEBjAZ-134">
          <mxGeometry relative="1" as="geometry" />
        </mxCell>
        <mxCell id="1HhsdRIlkmis1yDEBjAZ-128" value="Администратор" style="shape=umlActor;verticalLabelPosition=bottom;verticalAlign=top;html=1;outlineConnect=0;" vertex="1" parent="1">
          <mxGeometry x="-1529" y="300" width="30" height="60" as="geometry" />
        </mxCell>
        <mxCell id="1HhsdRIlkmis1yDEBjAZ-130" value="&amp;lt;&amp;lt;include&amp;gt;&amp;gt;" style="html=1;verticalAlign=bottom;labelBackgroundColor=none;endArrow=open;endFill=0;dashed=1;rounded=0;exitX=0.5;exitY=0;exitDx=0;exitDy=0;exitPerimeter=0;entryX=0.5;entryY=1;entryDx=0;entryDy=0;" edge="1" parent="1" source="1HhsdRIlkmis1yDEBjAZ-128" target="1HhsdRIlkmis1yDEBjAZ-106">
          <mxGeometry width="160" relative="1" as="geometry">
            <mxPoint x="-1580" y="250" as="sourcePoint" />
            <mxPoint x="-1420" y="250" as="targetPoint" />
          </mxGeometry>
        </mxCell>
        <mxCell id="1HhsdRIlkmis1yDEBjAZ-132" value="&lt;span style=&quot;text-align: start; line-height: 28px; font-family: &amp;quot;Times New Roman&amp;quot;, serif;&quot; lang=&quot;EN-US&quot;&gt;&lt;font style=&quot;font-size: 14px;&quot;&gt;Настройка параметров системы&lt;/font&gt;&lt;/span&gt;&lt;span style=&quot;font-size: medium; text-align: start;&quot;&gt;&lt;/span&gt;" style="ellipse;whiteSpace=wrap;html=1;" vertex="1" parent="1">
          <mxGeometry x="-1470" y="390" width="120" height="80" as="geometry" />
        </mxCell>
        <mxCell id="1HhsdRIlkmis1yDEBjAZ-134" value="&lt;font face=&quot;Times New Roman&quot; style=&quot;font-size: 14px;&quot;&gt;Мониторинг действия пользователя в системе&amp;nbsp;&lt;/font&gt;" style="ellipse;whiteSpace=wrap;html=1;" vertex="1" parent="1">
          <mxGeometry x="-1480" y="260" width="120" height="80" as="geometry" />
        </mxCell>
        <mxCell id="1HhsdRIlkmis1yDEBjAZ-137" value="&amp;lt;&amp;lt;include&amp;gt;&amp;gt;" style="html=1;verticalAlign=bottom;labelBackgroundColor=none;endArrow=open;endFill=0;dashed=1;rounded=0;entryX=1;entryY=1;entryDx=0;entryDy=0;exitX=0.5;exitY=0;exitDx=0;exitDy=0;" edge="1" parent="1" target="1HhsdRIlkmis1yDEBjAZ-127">
          <mxGeometry width="160" relative="1" as="geometry">
            <mxPoint x="-1430" y="264.9999999999418" as="sourcePoint" />
            <mxPoint x="-1520" y="-65.00000000005821" as="targetPoint" />
          </mxGeometry>
        </mxCell>
        <mxCell id="1HhsdRIlkmis1yDEBjAZ-138" value="Клиент" style="shape=umlActor;html=1;verticalLabelPosition=bottom;verticalAlign=top;align=center;" vertex="1" parent="1">
          <mxGeometry x="-1890" y="-120" width="30" height="60" as="geometry" />
        </mxCell>
        <mxCell id="1HhsdRIlkmis1yDEBjAZ-139" value="Авторизация" style="ellipse;whiteSpace=wrap;html=1;" vertex="1" parent="1">
          <mxGeometry x="-1770" y="-125" width="140" height="70" as="geometry" />
        </mxCell>
        <mxCell id="1HhsdRIlkmis1yDEBjAZ-140" value="" style="edgeStyle=none;html=1;endArrow=none;verticalAlign=bottom;rounded=0;exitX=0.5;exitY=0.5;exitDx=0;exitDy=0;exitPerimeter=0;entryX=0;entryY=0.5;entryDx=0;entryDy=0;" edge="1" parent="1" source="1HhsdRIlkmis1yDEBjAZ-138" target="1HhsdRIlkmis1yDEBjAZ-139">
          <mxGeometry width="160" relative="1" as="geometry">
            <mxPoint x="-1960" y="-90" as="sourcePoint" />
            <mxPoint x="-1800" y="-90" as="targetPoint" />
          </mxGeometry>
        </mxCell>
        <mxCell id="1HhsdRIlkmis1yDEBjAZ-141" value="Регистрация" style="ellipse;whiteSpace=wrap;html=1;" vertex="1" parent="1">
          <mxGeometry x="-1785" y="17" width="140" height="70" as="geometry" />
        </mxCell>
        <mxCell id="1HhsdRIlkmis1yDEBjAZ-144" value="&amp;lt;&amp;lt;extend&amp;gt;&amp;gt;" style="edgeStyle=none;html=1;startArrow=open;endArrow=none;startSize=12;verticalAlign=bottom;dashed=1;labelBackgroundColor=none;rounded=0;entryX=0.5;entryY=0;entryDx=0;entryDy=0;exitX=0.429;exitY=0.944;exitDx=0;exitDy=0;exitPerimeter=0;" edge="1" parent="1" source="1HhsdRIlkmis1yDEBjAZ-139" target="1HhsdRIlkmis1yDEBjAZ-141">
          <mxGeometry width="160" relative="1" as="geometry">
            <mxPoint x="-1950" y="-90" as="sourcePoint" />
            <mxPoint x="-1730" y="-40" as="targetPoint" />
          </mxGeometry>
        </mxCell>
        <mxCell id="1HhsdRIlkmis1yDEBjAZ-148" value="&amp;lt;&amp;lt;extend&amp;gt;&amp;gt;" style="edgeStyle=none;html=1;startArrow=open;endArrow=none;startSize=12;verticalAlign=bottom;dashed=1;labelBackgroundColor=none;rounded=0;entryX=0.5;entryY=0;entryDx=0;entryDy=0;" edge="1" parent="1" source="1HhsdRIlkmis1yDEBjAZ-139" target="1HhsdRIlkmis1yDEBjAZ-127">
          <mxGeometry width="160" relative="1" as="geometry">
            <mxPoint x="-1950" y="-100" as="sourcePoint" />
            <mxPoint x="-1628.5600000000559" y="-117.28000000002794" as="targetPoint" />
          </mxGeometry>
        </mxCell>
        <mxCell id="1HhsdRIlkmis1yDEBjAZ-150" value="&amp;lt;&amp;lt;extend&amp;gt;&amp;gt;" style="edgeStyle=none;html=1;startArrow=open;endArrow=none;startSize=12;verticalAlign=bottom;dashed=1;labelBackgroundColor=none;rounded=0;exitX=0.69;exitY=0.969;exitDx=0;exitDy=0;exitPerimeter=0;entryX=0.5;entryY=0;entryDx=0;entryDy=0;" edge="1" parent="1" source="1HhsdRIlkmis1yDEBjAZ-139" target="1HhsdRIlkmis1yDEBjAZ-106">
          <mxGeometry width="160" relative="1" as="geometry">
            <mxPoint x="-1690" y="110" as="sourcePoint" />
            <mxPoint x="-1530" y="110" as="targetPoint" />
          </mxGeometry>
        </mxCell>
        <mxCell id="1HhsdRIlkmis1yDEBjAZ-151" value="" style="edgeStyle=none;html=1;endArrow=none;verticalAlign=bottom;rounded=0;exitX=1;exitY=1;exitDx=0;exitDy=0;exitPerimeter=0;entryX=0;entryY=0;entryDx=0;entryDy=0;" edge="1" parent="1" source="1HhsdRIlkmis1yDEBjAZ-138" target="1HhsdRIlkmis1yDEBjAZ-141">
          <mxGeometry width="160" relative="1" as="geometry">
            <mxPoint x="-1920" y="-30" as="sourcePoint" />
            <mxPoint x="-1760" y="-30" as="targetPoint" />
          </mxGeometry>
        </mxCell>
        <mxCell id="1HhsdRIlkmis1yDEBjAZ-156" value="" style="edgeStyle=none;html=1;endArrow=block;endFill=0;endSize=12;verticalAlign=bottom;rounded=0;exitX=0.5;exitY=0.5;exitDx=0;exitDy=0;exitPerimeter=0;entryX=0.5;entryY=0.5;entryDx=0;entryDy=0;entryPerimeter=0;" edge="1" parent="1" source="1HhsdRIlkmis1yDEBjAZ-77" target="1HhsdRIlkmis1yDEBjAZ-138">
          <mxGeometry width="160" relative="1" as="geometry">
            <mxPoint x="-1960" y="-200" as="sourcePoint" />
            <mxPoint x="-1880" y="-150" as="targetPoint" />
          </mxGeometry>
        </mxCell>
      </root>
    </mxGraphModel>
  </diagram>
</mxfile>
